<?xml version="1.0" encoding="utf-8"?>
<!-- Generator: Adobe Illustrator 15.1.0, SVG Export Plug-In  -->
<!DOCTYPE svg PUBLIC "-//W3C//DTD SVG 1.1//EN" "http://www.w3.org/Graphics/SVG/1.1/DTD/svg11.dtd" [
	<!ENTITY ns_flows "http://ns.adobe.com/Flows/1.0/">
]>
<svg version="1.1"
	 xmlns="http://www.w3.org/2000/svg" xmlns:xlink="http://www.w3.org/1999/xlink" xmlns:a="http://ns.adobe.com/AdobeSVGViewerExtensions/3.0/"
	 x="0px" y="0px" width="473px" height="462px" viewBox="-18.733 -13.061 473 462" enable-background="new -18.733 -13.061 473 462"
	 xml:space="preserve">
<defs>
</defs>
<path fill="none" stroke="#231815" stroke-width="2" stroke-miterlimit="10" d="M434.919,217.962
	c0,119.829-97.122,216.962-216.968,216.962C98.133,434.924,1,337.792,1,217.962S98.133,1,217.951,1
	C337.797,1,434.919,98.133,434.919,217.962z"/>
<path fill="#231815" d="M251.529,218.617c0,31.404-7.427,58.101-22.286,80.089c-19.693,28.719-49.328,43.066-88.877,43.066H57.797
	v-6.719c11.851-1.123,19.786-3.809,23.809-8.078c4.017-4.483,6.028-13.349,6.028-26.584V135.833c0-13.91-2.118-23.101-6.323-27.601
	c-3.424-3.579-11.261-6.051-23.514-7.388v-6.736h78.338c35.96,0,63.87,10.444,83.759,31.298
	C240.99,146.945,251.529,178.011,251.529,218.617z M227.737,218.959c0-37.24-9.247-66.408-27.732-87.498
	c-14.666-17.274-40.575-25.909-77.729-25.909c-7.225,0-11.842,1.674-13.865,5.056c-1.194,2.012-1.798,6.157-1.798,12.443v189.452
	c0,7.629,1.612,12.685,4.817,15.146c2.404,1.786,7.329,2.686,14.758,2.686C193.893,330.334,227.737,293.211,227.737,218.959z"/>
<path fill="#231815" d="M378.122,211.64c-7.275,1.865-17.421,5.668-30.466,11.415l0.781-28.932
	c-4.073,5.078-9.314,11.168-15.741,18.269c-8.966,7.281-17.606,11.091-25.893,11.428c-6.427,0-11.854-2.287-16.241-6.854
	c-6.275-6.427-9.404-16.247-9.404-29.438V118.99c0-13.37-6.012-20.393-18.022-21.067v-3.814h31.724v90.616
	c0,14.557,7.45,21.837,22.349,21.837c7.774,0,15.387-3.635,22.836-10.921c4.399-4.051,6.612-9.978,6.612-17.764v-58.64
	c0-6.595-1.174-11.247-3.562-13.954c-3.213-3.73-8.972-5.838-17.27-6.349v-4.826h34.533v94.173c0,12.186,5.916,18.28,17.764,18.28
	V211.64z"/>
<path fill="#231815" d="M304.567,321.537c0,6.371-2.23,11.494-6.68,15.359c-3.943,3.281-8.427,4.921-13.466,4.921
	c-2.5,0-5.691-0.584-9.562-1.741c-3.753-1.247-6.169-1.876-7.241-1.876c-1.157,0-1.983,0.955-2.461,2.888h-1.882v-24.045h2.18
	c1.539,7.056,2.994,11.641,4.348,13.764c2.798,4.831,7.32,7.247,13.624,7.247c9.264,0,13.887-3.955,13.887-11.876
	c0-4.831-2.657-9.078-7.954-12.741l-8.253-5.798c-7.455-5.112-11.545-8-12.326-8.686c-3.764-3.685-5.646-8.067-5.646-13.18
	c0-5.021,1.545-9.382,4.629-13.033c3.669-4.247,8.606-6.37,14.786-6.37c2.512,0,5.062,0.617,7.669,1.876
	c2.601,1.157,4.207,1.73,4.786,1.73c1.067,0,1.686-0.764,1.882-2.314h2.169l0.87,20.854h-2.32
	c-1.443-7.82-3.432-13.078-5.938-15.775c-2.124-2.225-5.214-3.337-9.281-3.337c-3.96,0-7.18,1.349-9.696,4.045
	c-2.213,2.337-3.325,4.933-3.325,7.831c0,4.742,2.309,8.696,6.938,11.877l15.657,10.572c4.438,3,7.376,5.359,8.831,7.102
	C303.309,313.818,304.567,317.379,304.567,321.537z"/>
<path fill="#231815" d="M377.954,303.728c0,9.27-2.506,17.618-7.54,25.056c-5.882,8.696-13.651,13.033-23.308,13.033
	c-8.894,0-16.22-3.617-22.006-10.854c-5.708-7.258-8.556-16.314-8.556-27.235c0-10.325,2.713-19.067,8.106-26.213
	c5.708-7.438,12.988-11.146,21.887-11.146c9.354,0,16.938,3.314,22.725,9.988C375.049,283.111,377.954,292.234,377.954,303.728z
	 M369.555,308.211c0-10.719-2.27-19.596-6.819-26.651c-4.428-7.045-10.175-10.562-17.23-10.562c-5.298,0-9.854,1.876-13.612,5.641
	c-4.337,4.449-6.567,10.774-6.657,18.977c-0.19,10.438,1.579,19.551,5.354,27.37c4.354,9.371,10.584,14.045,18.69,14.045
	c4.915,0,9.157-1.73,12.735-5.202C367.044,326.896,369.555,319.02,369.555,308.211z"/>
<line fill="none" stroke="#231815" stroke-width="0.75" stroke-miterlimit="10" x1="263.136" y1="244.639" x2="378.122" y2="244.639"/>
</svg>
